<?xml version="1.0" ?><svg height="35px" version="1.1" viewBox="0 0 60 60" width="35px" xmlns="http://www.w3.org/2000/svg" xmlns:sketch="http://www.bohemiancoding.com/sketch/ns" xmlns:xlink="http://www.w3.org/1999/xlink"><title/><desc/><defs/><g fill="none" fill-rule="evenodd" id="soical" stroke="none" stroke-width="1"><g id="social" transform="translate(-273.000000, -238.000000)"><g id="slices" transform="translate(173.000000, 138.000000)"/><g fill="white" id="hexagon-flat" transform="translate(173.000000, 138.000000)"><polygon id="Polygon-11" points="130 100 155.980762 115 155.980762 145 130 160 104.019238 145 104.019238 115 "/></g><g fill="#00BFF3" id="icon" transform="translate(182.000000, 150.000000)"><path d="M111.769231,124.923077 C115.592741,124.923077 118.692308,121.82351 118.692308,118 C118.692308,114.17649 115.592741,111.076923 111.769231,111.076923 C107.945721,111.076923 104.846154,114.17649 104.846154,118 C104.846154,121.82351 107.945721,124.923077 111.769231,124.923077 Z M130.230769,124.923077 C134.054279,124.923077 137.153846,121.82351 137.153846,118 C137.153846,114.17649 134.054279,111.076923 130.230769,111.076923 C126.407259,111.076923 123.307692,114.17649 123.307692,118 C123.307692,121.82351 126.407259,124.923077 130.230769,124.923077 Z" id="flickr"/></g></g></g></svg>